<mxfile host="app.diagrams.net" agent="Mozilla/5.0 (Windows NT 10.0; Win64; x64) AppleWebKit/537.36 (KHTML, like Gecko) Chrome/141.0.0.0 Safari/537.36" version="28.2.8">
  <diagram name="Page-1" id="GpPFGP3yga9tD4kGkA4m">
    <mxGraphModel dx="1796" dy="1663" grid="1" gridSize="10" guides="1" tooltips="1" connect="1" arrows="1" fold="1" page="1" pageScale="1" pageWidth="850" pageHeight="1100" math="0" shadow="0">
      <root>
        <mxCell id="0" />
        <mxCell id="1" parent="0" />
        <mxCell id="2zegyBKfFP5WF218XvZV-1" value="&lt;b&gt;&lt;font face=&quot;Comic Sans MS&quot; style=&quot;color: rgb(51, 51, 255);&quot;&gt;AWS Account&lt;/font&gt;&lt;/b&gt;" style="points=[[0,0],[0.25,0],[0.5,0],[0.75,0],[1,0],[1,0.25],[1,0.5],[1,0.75],[1,1],[0.75,1],[0.5,1],[0.25,1],[0,1],[0,0.75],[0,0.5],[0,0.25]];outlineConnect=0;html=1;whiteSpace=wrap;fontSize=12;fontStyle=0;container=1;pointerEvents=0;collapsible=0;recursiveResize=0;shape=mxgraph.aws4.group;grIcon=mxgraph.aws4.group_account;verticalAlign=top;align=left;spacingLeft=30;dashed=0;strokeColor=#FF0080;" parent="1" vertex="1">
          <mxGeometry x="40" y="40" width="810" height="520" as="geometry" />
        </mxCell>
        <mxCell id="2zegyBKfFP5WF218XvZV-9" value="" style="sketch=0;points=[[0,0,0],[0.25,0,0],[0.5,0,0],[0.75,0,0],[1,0,0],[0,1,0],[0.25,1,0],[0.5,1,0],[0.75,1,0],[1,1,0],[0,0.25,0],[0,0.5,0],[0,0.75,0],[1,0.25,0],[1,0.5,0],[1,0.75,0]];outlineConnect=0;fontColor=#232F3E;fillColor=#8C4FFF;strokeColor=#ffffff;dashed=0;verticalLabelPosition=bottom;verticalAlign=top;align=center;html=1;fontSize=12;fontStyle=0;aspect=fixed;shape=mxgraph.aws4.resourceIcon;resIcon=mxgraph.aws4.route_53;" parent="2zegyBKfFP5WF218XvZV-1" vertex="1">
          <mxGeometry x="20" y="220" width="40" height="40" as="geometry" />
        </mxCell>
        <mxCell id="2zegyBKfFP5WF218XvZV-14" value="&lt;b&gt;daws86s.fun&lt;/b&gt;" style="text;html=1;whiteSpace=wrap;strokeColor=none;fillColor=none;align=center;verticalAlign=middle;rounded=0;" parent="2zegyBKfFP5WF218XvZV-1" vertex="1">
          <mxGeometry x="10" y="275" width="60" height="30" as="geometry" />
        </mxCell>
        <mxCell id="2zegyBKfFP5WF218XvZV-2" value="&lt;font face=&quot;Comic Sans MS&quot; style=&quot;color: rgb(0, 102, 51);&quot;&gt;&lt;b&gt;VPC&lt;/b&gt;&lt;/font&gt;" style="points=[[0,0],[0.25,0],[0.5,0],[0.75,0],[1,0],[1,0.25],[1,0.5],[1,0.75],[1,1],[0.75,1],[0.5,1],[0.25,1],[0,1],[0,0.75],[0,0.5],[0,0.25]];outlineConnect=0;gradientColor=#b3b3b3;html=1;whiteSpace=wrap;fontSize=12;fontStyle=0;container=1;pointerEvents=0;collapsible=0;recursiveResize=0;shape=mxgraph.aws4.group;grIcon=mxgraph.aws4.group_vpc2;strokeColor=#666666;fillColor=#f5f5f5;verticalAlign=top;align=left;spacingLeft=30;dashed=0;" parent="1" vertex="1">
          <mxGeometry x="120" y="80" width="700" height="440" as="geometry" />
        </mxCell>
        <mxCell id="2zegyBKfFP5WF218XvZV-3" value="" style="rounded=1;arcSize=10;dashed=1;strokeColor=#F59D56;fillColor=none;gradientColor=none;dashPattern=8 4;strokeWidth=2;" parent="2zegyBKfFP5WF218XvZV-2" vertex="1">
          <mxGeometry x="40" y="40" width="640" height="120" as="geometry" />
        </mxCell>
        <mxCell id="2zegyBKfFP5WF218XvZV-24" value="" style="edgeStyle=orthogonalEdgeStyle;rounded=0;orthogonalLoop=1;jettySize=auto;html=1;" parent="2zegyBKfFP5WF218XvZV-2" source="2zegyBKfFP5WF218XvZV-4" target="2zegyBKfFP5WF218XvZV-23" edge="1">
          <mxGeometry relative="1" as="geometry" />
        </mxCell>
        <mxCell id="2zegyBKfFP5WF218XvZV-4" value="" style="rounded=1;arcSize=10;dashed=1;strokeColor=#0000FF;fillColor=none;gradientColor=none;dashPattern=8 4;strokeWidth=2;" parent="2zegyBKfFP5WF218XvZV-2" vertex="1">
          <mxGeometry x="50" y="280" width="630" height="120" as="geometry" />
        </mxCell>
        <mxCell id="2zegyBKfFP5WF218XvZV-5" value="&lt;b&gt;&lt;font face=&quot;Comic Sans MS&quot;&gt;Public subnet&lt;/font&gt;&lt;/b&gt;" style="points=[[0,0],[0.25,0],[0.5,0],[0.75,0],[1,0],[1,0.25],[1,0.5],[1,0.75],[1,1],[0.75,1],[0.5,1],[0.25,1],[0,1],[0,0.75],[0,0.5],[0,0.25]];outlineConnect=0;gradientColor=#97d077;html=1;whiteSpace=wrap;fontSize=12;fontStyle=0;container=1;pointerEvents=0;collapsible=0;recursiveResize=0;shape=mxgraph.aws4.group;grIcon=mxgraph.aws4.group_security_group;grStroke=0;strokeColor=#82b366;fillColor=#d5e8d4;verticalAlign=top;align=left;spacingLeft=30;dashed=0;" parent="2zegyBKfFP5WF218XvZV-2" vertex="1">
          <mxGeometry x="60" y="30" width="170" height="380" as="geometry" />
        </mxCell>
        <mxCell id="2zegyBKfFP5WF218XvZV-15" value="" style="rounded=0;whiteSpace=wrap;html=1;" parent="2zegyBKfFP5WF218XvZV-5" vertex="1">
          <mxGeometry x="40" y="140" width="100" height="60" as="geometry" />
        </mxCell>
        <mxCell id="2zegyBKfFP5WF218XvZV-16" value="" style="sketch=0;points=[[0,0,0],[0.25,0,0],[0.5,0,0],[0.75,0,0],[1,0,0],[0,1,0],[0.25,1,0],[0.5,1,0],[0.75,1,0],[1,1,0],[0,0.25,0],[0,0.5,0],[0,0.75,0],[1,0.25,0],[1,0.5,0],[1,0.75,0]];outlineConnect=0;fontColor=#232F3E;fillColor=#ED7100;strokeColor=#ffffff;dashed=0;verticalLabelPosition=bottom;verticalAlign=top;align=center;html=1;fontSize=12;fontStyle=0;aspect=fixed;shape=mxgraph.aws4.resourceIcon;resIcon=mxgraph.aws4.ec2;" parent="2zegyBKfFP5WF218XvZV-5" vertex="1">
          <mxGeometry x="50" y="152.5" width="35" height="35" as="geometry" />
        </mxCell>
        <mxCell id="2zegyBKfFP5WF218XvZV-17" value="" style="sketch=0;points=[[0,0,0],[0.25,0,0],[0.5,0,0],[0.75,0,0],[1,0,0],[0,1,0],[0.25,1,0],[0.5,1,0],[0.75,1,0],[1,1,0],[0,0.25,0],[0,0.5,0],[0,0.75,0],[1,0.25,0],[1,0.5,0],[1,0.75,0]];outlineConnect=0;fontColor=#232F3E;fillColor=#ED7100;strokeColor=#ffffff;dashed=0;verticalLabelPosition=bottom;verticalAlign=top;align=center;html=1;fontSize=12;fontStyle=0;aspect=fixed;shape=mxgraph.aws4.resourceIcon;resIcon=mxgraph.aws4.ec2;" parent="2zegyBKfFP5WF218XvZV-5" vertex="1">
          <mxGeometry x="100" y="152.5" width="35" height="35" as="geometry" />
        </mxCell>
        <mxCell id="2zegyBKfFP5WF218XvZV-6" value="&lt;b&gt;&lt;font face=&quot;Comic Sans MS&quot;&gt;Private subnet&lt;/font&gt;&lt;/b&gt;" style="points=[[0,0],[0.25,0],[0.5,0],[0.75,0],[1,0],[1,0.25],[1,0.5],[1,0.75],[1,1],[0.75,1],[0.5,1],[0.25,1],[0,1],[0,0.75],[0,0.5],[0,0.25]];outlineConnect=0;gradientColor=#7ea6e0;html=1;whiteSpace=wrap;fontSize=12;fontStyle=0;container=1;pointerEvents=0;collapsible=0;recursiveResize=0;shape=mxgraph.aws4.group;grIcon=mxgraph.aws4.group_security_group;grStroke=0;strokeColor=#6c8ebf;fillColor=#dae8fc;verticalAlign=top;align=left;spacingLeft=30;dashed=0;" parent="2zegyBKfFP5WF218XvZV-2" vertex="1">
          <mxGeometry x="290" y="30" width="170" height="380" as="geometry" />
        </mxCell>
        <mxCell id="2zegyBKfFP5WF218XvZV-21" value="&lt;b&gt;catalogue&lt;/b&gt;" style="rounded=0;whiteSpace=wrap;html=1;fillColor=#d5e8d4;gradientColor=#97d077;strokeColor=#82b366;" parent="2zegyBKfFP5WF218XvZV-6" vertex="1">
          <mxGeometry x="30" y="35" width="120" height="45" as="geometry" />
        </mxCell>
        <mxCell id="2zegyBKfFP5WF218XvZV-25" value="&lt;b&gt;cart&lt;/b&gt;" style="rounded=0;whiteSpace=wrap;html=1;fillColor=#fff2cc;gradientColor=#ffd966;strokeColor=#d6b656;" parent="2zegyBKfFP5WF218XvZV-6" vertex="1">
          <mxGeometry x="30" y="175" width="120" height="45" as="geometry" />
        </mxCell>
        <mxCell id="2zegyBKfFP5WF218XvZV-7" value="&lt;b&gt;&lt;font face=&quot;Comic Sans MS&quot;&gt;Database subnet&lt;/font&gt;&lt;/b&gt;" style="points=[[0,0],[0.25,0],[0.5,0],[0.75,0],[1,0],[1,0.25],[1,0.5],[1,0.75],[1,1],[0.75,1],[0.5,1],[0.25,1],[0,1],[0,0.75],[0,0.5],[0,0.25]];outlineConnect=0;gradientColor=#ea6b66;html=1;whiteSpace=wrap;fontSize=12;fontStyle=0;container=1;pointerEvents=0;collapsible=0;recursiveResize=0;shape=mxgraph.aws4.group;grIcon=mxgraph.aws4.group_security_group;grStroke=0;strokeColor=#b85450;fillColor=#f8cecc;verticalAlign=top;align=left;spacingLeft=30;dashed=0;" parent="2zegyBKfFP5WF218XvZV-2" vertex="1">
          <mxGeometry x="500" y="30" width="170" height="377.5" as="geometry" />
        </mxCell>
        <mxCell id="2zegyBKfFP5WF218XvZV-29" value="&lt;b&gt;redis&lt;/b&gt;" style="rounded=0;whiteSpace=wrap;html=1;fillColor=#d5e8d4;gradientColor=#97d077;strokeColor=#82b366;" parent="2zegyBKfFP5WF218XvZV-7" vertex="1">
          <mxGeometry x="30" y="142.5" width="120" height="45" as="geometry" />
        </mxCell>
        <mxCell id="2zegyBKfFP5WF218XvZV-18" style="edgeStyle=orthogonalEdgeStyle;rounded=0;orthogonalLoop=1;jettySize=auto;html=1;entryX=0;entryY=0.5;entryDx=0;entryDy=0;flowAnimation=1;strokeWidth=2;" parent="2zegyBKfFP5WF218XvZV-2" source="2zegyBKfFP5WF218XvZV-12" target="2zegyBKfFP5WF218XvZV-15" edge="1">
          <mxGeometry relative="1" as="geometry" />
        </mxCell>
        <mxCell id="2zegyBKfFP5WF218XvZV-12" value="" style="outlineConnect=0;dashed=0;verticalLabelPosition=bottom;verticalAlign=top;align=center;html=1;shape=mxgraph.aws3.application_load_balancer;fillColor=#F58534;gradientColor=none;" parent="2zegyBKfFP5WF218XvZV-2" vertex="1">
          <mxGeometry x="10" y="170" width="59" height="60" as="geometry" />
        </mxCell>
        <mxCell id="2zegyBKfFP5WF218XvZV-22" style="edgeStyle=orthogonalEdgeStyle;rounded=0;orthogonalLoop=1;jettySize=auto;html=1;exitX=0.5;exitY=0;exitDx=0;exitDy=0;exitPerimeter=0;flowAnimation=1;strokeWidth=2;" parent="2zegyBKfFP5WF218XvZV-2" source="2zegyBKfFP5WF218XvZV-19" edge="1">
          <mxGeometry relative="1" as="geometry">
            <mxPoint x="320" y="80" as="targetPoint" />
            <Array as="points">
              <mxPoint x="261" y="81" />
              <mxPoint x="320" y="81" />
            </Array>
          </mxGeometry>
        </mxCell>
        <mxCell id="2zegyBKfFP5WF218XvZV-39" style="edgeStyle=orthogonalEdgeStyle;rounded=0;orthogonalLoop=1;jettySize=auto;html=1;entryX=0;entryY=0.5;entryDx=0;entryDy=0;flowAnimation=1;strokeWidth=2;" parent="2zegyBKfFP5WF218XvZV-2" source="2zegyBKfFP5WF218XvZV-19" target="2zegyBKfFP5WF218XvZV-25" edge="1">
          <mxGeometry relative="1" as="geometry">
            <Array as="points">
              <mxPoint x="260" y="240" />
              <mxPoint x="260" y="240" />
            </Array>
          </mxGeometry>
        </mxCell>
        <mxCell id="2zegyBKfFP5WF218XvZV-41" style="edgeStyle=orthogonalEdgeStyle;rounded=0;orthogonalLoop=1;jettySize=auto;html=1;entryX=0;entryY=0.5;entryDx=0;entryDy=0;flowAnimation=1;strokeWidth=2;" parent="2zegyBKfFP5WF218XvZV-2" source="2zegyBKfFP5WF218XvZV-19" target="2zegyBKfFP5WF218XvZV-26" edge="1">
          <mxGeometry relative="1" as="geometry">
            <Array as="points">
              <mxPoint x="261" y="263" />
              <mxPoint x="260" y="313" />
            </Array>
          </mxGeometry>
        </mxCell>
        <mxCell id="2zegyBKfFP5WF218XvZV-42" style="edgeStyle=orthogonalEdgeStyle;rounded=0;orthogonalLoop=1;jettySize=auto;html=1;entryX=0;entryY=0.5;entryDx=0;entryDy=0;flowAnimation=1;strokeWidth=2;" parent="2zegyBKfFP5WF218XvZV-2" source="2zegyBKfFP5WF218XvZV-19" target="2zegyBKfFP5WF218XvZV-27" edge="1">
          <mxGeometry relative="1" as="geometry">
            <Array as="points">
              <mxPoint x="261" y="378" />
            </Array>
          </mxGeometry>
        </mxCell>
        <mxCell id="2zegyBKfFP5WF218XvZV-19" value="" style="outlineConnect=0;dashed=0;verticalLabelPosition=bottom;verticalAlign=top;align=center;html=1;shape=mxgraph.aws3.application_load_balancer;fillColor=#F58534;gradientColor=none;" parent="2zegyBKfFP5WF218XvZV-2" vertex="1">
          <mxGeometry x="231" y="170" width="59" height="60" as="geometry" />
        </mxCell>
        <mxCell id="2zegyBKfFP5WF218XvZV-20" style="edgeStyle=orthogonalEdgeStyle;rounded=0;orthogonalLoop=1;jettySize=auto;html=1;flowAnimation=1;" parent="2zegyBKfFP5WF218XvZV-2" source="2zegyBKfFP5WF218XvZV-15" target="2zegyBKfFP5WF218XvZV-19" edge="1">
          <mxGeometry relative="1" as="geometry" />
        </mxCell>
        <mxCell id="2zegyBKfFP5WF218XvZV-44" style="edgeStyle=orthogonalEdgeStyle;rounded=0;orthogonalLoop=1;jettySize=auto;html=1;entryX=0;entryY=0.5;entryDx=0;entryDy=0;" parent="2zegyBKfFP5WF218XvZV-2" source="2zegyBKfFP5WF218XvZV-23" target="2zegyBKfFP5WF218XvZV-28" edge="1">
          <mxGeometry relative="1" as="geometry" />
        </mxCell>
        <mxCell id="2zegyBKfFP5WF218XvZV-45" style="edgeStyle=orthogonalEdgeStyle;rounded=0;orthogonalLoop=1;jettySize=auto;html=1;flowAnimation=0;" parent="2zegyBKfFP5WF218XvZV-2" source="2zegyBKfFP5WF218XvZV-23" target="2zegyBKfFP5WF218XvZV-29" edge="1">
          <mxGeometry relative="1" as="geometry" />
        </mxCell>
        <mxCell id="2zegyBKfFP5WF218XvZV-23" value="&lt;b&gt;user&lt;/b&gt;" style="rounded=0;whiteSpace=wrap;html=1;fillColor=#f5f5f5;gradientColor=#b3b3b3;strokeColor=#666666;" parent="2zegyBKfFP5WF218XvZV-2" vertex="1">
          <mxGeometry x="320" y="140" width="120" height="45" as="geometry" />
        </mxCell>
        <mxCell id="2zegyBKfFP5WF218XvZV-47" style="edgeStyle=orthogonalEdgeStyle;rounded=0;orthogonalLoop=1;jettySize=auto;html=1;entryX=0;entryY=0.5;entryDx=0;entryDy=0;" parent="2zegyBKfFP5WF218XvZV-2" source="2zegyBKfFP5WF218XvZV-26" target="2zegyBKfFP5WF218XvZV-30" edge="1">
          <mxGeometry relative="1" as="geometry" />
        </mxCell>
        <mxCell id="2zegyBKfFP5WF218XvZV-26" value="&lt;b&gt;shipping&lt;/b&gt;" style="rounded=0;whiteSpace=wrap;html=1;fillColor=#f8cecc;gradientColor=#ea6b66;strokeColor=#b85450;" parent="2zegyBKfFP5WF218XvZV-2" vertex="1">
          <mxGeometry x="320" y="290" width="120" height="45" as="geometry" />
        </mxCell>
        <mxCell id="2zegyBKfFP5WF218XvZV-48" style="edgeStyle=orthogonalEdgeStyle;rounded=0;orthogonalLoop=1;jettySize=auto;html=1;" parent="2zegyBKfFP5WF218XvZV-2" source="2zegyBKfFP5WF218XvZV-27" target="2zegyBKfFP5WF218XvZV-31" edge="1">
          <mxGeometry relative="1" as="geometry" />
        </mxCell>
        <mxCell id="2zegyBKfFP5WF218XvZV-27" value="&lt;b&gt;payment&lt;/b&gt;" style="rounded=0;whiteSpace=wrap;html=1;fillColor=#e6d0de;gradientColor=#d5739d;strokeColor=#996185;" parent="2zegyBKfFP5WF218XvZV-2" vertex="1">
          <mxGeometry x="320" y="355" width="120" height="45" as="geometry" />
        </mxCell>
        <mxCell id="2zegyBKfFP5WF218XvZV-28" value="&lt;b&gt;mongodb&lt;/b&gt;" style="rounded=0;whiteSpace=wrap;html=1;fillColor=#dae8fc;gradientColor=#7ea6e0;strokeColor=#6c8ebf;" parent="2zegyBKfFP5WF218XvZV-2" vertex="1">
          <mxGeometry x="530" y="90" width="120" height="45" as="geometry" />
        </mxCell>
        <mxCell id="2zegyBKfFP5WF218XvZV-30" value="&lt;b&gt;mysql&lt;/b&gt;" style="rounded=0;whiteSpace=wrap;html=1;fillColor=#fff2cc;gradientColor=#ffd966;strokeColor=#d6b656;" parent="2zegyBKfFP5WF218XvZV-2" vertex="1">
          <mxGeometry x="530" y="260" width="120" height="45" as="geometry" />
        </mxCell>
        <mxCell id="2zegyBKfFP5WF218XvZV-31" value="&lt;b&gt;rabbitmq&lt;/b&gt;" style="rounded=0;whiteSpace=wrap;html=1;fillColor=#f5f5f5;gradientColor=#b3b3b3;strokeColor=#666666;" parent="2zegyBKfFP5WF218XvZV-2" vertex="1">
          <mxGeometry x="530" y="340" width="120" height="45" as="geometry" />
        </mxCell>
        <mxCell id="2zegyBKfFP5WF218XvZV-32" style="edgeStyle=orthogonalEdgeStyle;rounded=0;orthogonalLoop=1;jettySize=auto;html=1;flowAnimation=0;strokeWidth=1;" parent="2zegyBKfFP5WF218XvZV-2" source="2zegyBKfFP5WF218XvZV-21" target="2zegyBKfFP5WF218XvZV-28" edge="1">
          <mxGeometry relative="1" as="geometry" />
        </mxCell>
        <mxCell id="2zegyBKfFP5WF218XvZV-34" value="&lt;b&gt;bastion&lt;/b&gt;" style="text;html=1;whiteSpace=wrap;strokeColor=none;fillColor=none;align=center;verticalAlign=middle;rounded=0;" parent="2zegyBKfFP5WF218XvZV-2" vertex="1">
          <mxGeometry x="115" y="120" width="60" height="30" as="geometry" />
        </mxCell>
        <mxCell id="2zegyBKfFP5WF218XvZV-33" value="" style="points=[];aspect=fixed;html=1;align=center;shadow=0;dashed=0;fillColor=#FF6A00;strokeColor=none;shape=mxgraph.alibaba_cloud.bastionhost;" parent="2zegyBKfFP5WF218XvZV-2" vertex="1">
          <mxGeometry x="119.80000000000001" y="70.50000000000001" width="50.4" height="39.900000000000006" as="geometry" />
        </mxCell>
        <mxCell id="2zegyBKfFP5WF218XvZV-38" style="edgeStyle=orthogonalEdgeStyle;rounded=0;orthogonalLoop=1;jettySize=auto;html=1;entryX=0;entryY=0.5;entryDx=0;entryDy=0;flowAnimation=1;strokeWidth=2;" parent="2zegyBKfFP5WF218XvZV-2" source="2zegyBKfFP5WF218XvZV-19" target="2zegyBKfFP5WF218XvZV-23" edge="1">
          <mxGeometry relative="1" as="geometry">
            <Array as="points">
              <mxPoint x="261" y="163" />
              <mxPoint x="310" y="163" />
            </Array>
          </mxGeometry>
        </mxCell>
        <mxCell id="2zegyBKfFP5WF218XvZV-43" value="" style="edgeStyle=orthogonalEdgeStyle;rounded=0;orthogonalLoop=1;jettySize=auto;html=1;strokeWidth=2;" parent="2zegyBKfFP5WF218XvZV-2" source="2zegyBKfFP5WF218XvZV-17" target="2zegyBKfFP5WF218XvZV-19" edge="1">
          <mxGeometry relative="1" as="geometry" />
        </mxCell>
        <mxCell id="2zegyBKfFP5WF218XvZV-46" style="edgeStyle=orthogonalEdgeStyle;rounded=0;orthogonalLoop=1;jettySize=auto;html=1;entryX=0;entryY=0.5;entryDx=0;entryDy=0;" parent="2zegyBKfFP5WF218XvZV-2" source="2zegyBKfFP5WF218XvZV-25" target="2zegyBKfFP5WF218XvZV-29" edge="1">
          <mxGeometry relative="1" as="geometry" />
        </mxCell>
        <mxCell id="2zegyBKfFP5WF218XvZV-8" value="" style="html=1;verticalLabelPosition=bottom;align=center;labelBackgroundColor=#ffffff;verticalAlign=top;strokeWidth=2;strokeColor=#0080F0;shadow=0;dashed=0;shape=mxgraph.ios7.icons.user;" parent="1" vertex="1">
          <mxGeometry x="-100" y="245" width="80" height="70" as="geometry" />
        </mxCell>
        <mxCell id="2zegyBKfFP5WF218XvZV-10" style="edgeStyle=orthogonalEdgeStyle;rounded=0;orthogonalLoop=1;jettySize=auto;html=1;entryX=0;entryY=0.5;entryDx=0;entryDy=0;entryPerimeter=0;flowAnimation=1;strokeWidth=2;" parent="1" source="2zegyBKfFP5WF218XvZV-8" target="2zegyBKfFP5WF218XvZV-9" edge="1">
          <mxGeometry relative="1" as="geometry" />
        </mxCell>
        <mxCell id="2zegyBKfFP5WF218XvZV-13" style="edgeStyle=orthogonalEdgeStyle;rounded=0;orthogonalLoop=1;jettySize=auto;html=1;flowAnimation=1;strokeWidth=2;" parent="1" source="2zegyBKfFP5WF218XvZV-9" target="2zegyBKfFP5WF218XvZV-12" edge="1">
          <mxGeometry relative="1" as="geometry" />
        </mxCell>
        <mxCell id="2zegyBKfFP5WF218XvZV-36" value="" style="sketch=0;pointerEvents=1;shadow=0;dashed=0;html=1;strokeColor=none;fillColor=#505050;labelPosition=center;verticalLabelPosition=bottom;verticalAlign=top;outlineConnect=0;align=center;shape=mxgraph.office.users.um_enabled_user;" parent="1" vertex="1">
          <mxGeometry x="-50" y="140.95" width="58" height="59" as="geometry" />
        </mxCell>
        <mxCell id="2zegyBKfFP5WF218XvZV-37" style="edgeStyle=orthogonalEdgeStyle;rounded=0;orthogonalLoop=1;jettySize=auto;html=1;entryX=0.097;entryY=0.575;entryDx=0;entryDy=0;entryPerimeter=0;flowAnimation=1;" parent="1" source="2zegyBKfFP5WF218XvZV-36" target="2zegyBKfFP5WF218XvZV-33" edge="1">
          <mxGeometry relative="1" as="geometry">
            <Array as="points">
              <mxPoint x="70" y="173" />
              <mxPoint x="70" y="173" />
            </Array>
          </mxGeometry>
        </mxCell>
        <mxCell id="sKZK_2DRASErgW6YSsaJ-1" value="" style="verticalLabelPosition=bottom;html=1;verticalAlign=top;align=center;strokeColor=none;fillColor=#00BEF2;shape=mxgraph.azure.github_code;pointerEvents=1;" vertex="1" parent="1">
          <mxGeometry x="239.8" y="-40" width="50" height="50" as="geometry" />
        </mxCell>
        <mxCell id="sKZK_2DRASErgW6YSsaJ-2" style="edgeStyle=orthogonalEdgeStyle;rounded=0;orthogonalLoop=1;jettySize=auto;html=1;entryX=0.48;entryY=0.451;entryDx=0;entryDy=0;entryPerimeter=0;" edge="1" parent="1" source="sKZK_2DRASErgW6YSsaJ-1" target="2zegyBKfFP5WF218XvZV-33">
          <mxGeometry relative="1" as="geometry" />
        </mxCell>
      </root>
    </mxGraphModel>
  </diagram>
</mxfile>
